<svg id="Layer_1" data-name="Layer 1" xmlns="http://www.w3.org/2000/svg" viewBox="0 0 131.8 131.8"><path d="M132.86,84.17,114.6,65.92a12.9,12.9,0,0,0-18.26,0,12.9,12.9,0,0,0-9.56-22c0-.08.07-.15.1-.22l.05-.12a13.15,13.15,0,0,0,.51-1.45,3.33,3.33,0,0,1,4.1-2.27,17.21,17.21,0,1,0-7.37-28.7L65.91,29.4a12.92,12.92,0,0,0,0,18.26,12.89,12.89,0,0,0-22,9.57l-.22-.11-.12,0a13.15,13.15,0,0,0-1.45-.51,3.33,3.33,0,0,1-2.27-4.09,17.22,17.22,0,1,0-28.7,7.36L29.4,78.09a12.92,12.92,0,0,0,18.26,0,12.9,12.9,0,0,1,17.69-.51,12.89,12.89,0,0,1-3.72,17.26h0l-.46.33,0,0q-.21.15-.42.33l-.13.11-.32.27c-.15.14-.3.28-.44.43s-.36.37-.53.56l-.15.17-.34.42-.15.19-.34.48-.1.13c-.14.22-.28.44-.41.66a0,0,0,0,1,0,0c-.12.21-.24.42-.35.64l-.06.13c-.1.19-.18.38-.27.57l0,.13a12.31,12.31,0,0,0-.51,1.44,3.33,3.33,0,0,1-4.1,2.27,17.21,17.21,0,1,0,7.37,28.7L78.09,114.6a12.9,12.9,0,0,0,0-18.25,12.9,12.9,0,0,1-.51-17.7,12.89,12.89,0,0,1,17.26,3.72h0l.33.46,0,0,.34.42a.69.69,0,0,0,.11.13l.27.32c.14.15.28.3.43.44s.37.36.56.53l.17.15.42.35a1.33,1.33,0,0,1,.19.14l.48.35.13.09.65.41h0c.21.12.42.24.64.35l.13.06q.28.15.57.27l.12.05c.48.2,1,.37,1.45.52a3.32,3.32,0,0,1,2.27,4.09,17.21,17.21,0,1,0,28.7-7.37ZM75,75a4.31,4.31,0,0,1-7-1.42,4.55,4.55,0,0,1-.23-.8A3.74,3.74,0,0,1,67.7,72a3.8,3.8,0,0,1,.08-.82A4.24,4.24,0,0,1,69,69,4.3,4.3,0,0,1,75,69a3.84,3.84,0,0,1,.55.67A4.3,4.3,0,0,1,75,75ZM66.77,36.16a8.61,8.61,0,0,1,8.7-6.22h0a7.63,7.63,0,0,0,8-7.24h0A12.91,12.91,0,1,1,95.72,36.21a13.08,13.08,0,0,1-3-.5,7.63,7.63,0,0,0-9.43,5.21,8.61,8.61,0,0,1-16.54-4.76ZM50.7,50.7a8.61,8.61,0,1,1,0,12.17A8.61,8.61,0,0,1,50.7,50.7ZM39.77,77.48A8.6,8.6,0,0,1,30,67.73h0A8.62,8.62,0,0,0,22.7,58h0a4.3,4.3,0,1,1,4.86-4.86h0a8.61,8.61,0,0,0,9.74,7.31h0a8.6,8.6,0,1,1,2.47,17Zm37.71,26.75A8.6,8.6,0,0,1,67.73,114v0A8.59,8.59,0,0,0,58,121.3h0a4.31,4.31,0,1,1-4.86-4.86h0a8.61,8.61,0,0,0,7.31-9.74h0a8.6,8.6,0,1,1,17-2.47ZM93.3,62.87a8.61,8.61,0,1,1,0-12.17A8.61,8.61,0,0,1,93.3,62.87Zm26.76,46.37a12.92,12.92,0,0,1-12.27-13.52,13.08,13.08,0,0,1,.5-3,7.63,7.63,0,0,0-5.21-9.43,8.61,8.61,0,1,1,11-7.84h0a7.63,7.63,0,0,0,7.24,8h0a12.91,12.91,0,0,1-1.26,25.79Z" transform="translate(-6.1 -6.1)"/></svg>