<?xml version="1.0" encoding="utf-8"?>
<!-- Generator: Adobe Illustrator 26.0.3, SVG Export Plug-In . SVG Version: 6.00 Build 0)  -->
<svg version="1.1" id="Layer_1" xmlns="http://www.w3.org/2000/svg" xmlns:xlink="http://www.w3.org/1999/xlink" x="0px" y="0px"
	 viewBox="0 0 720 1440" style="enable-background:new 0 0 720 1440;" xml:space="preserve">
<g id="Layer_2_00000030472968253586521900000004579197626686783873_">
	<g id="Layer_1-2">
		<path d="M585,855c-74.6,0-135-60.4-135-135l0,0c0-3-0.2-5.8-0.4-8.7l0,0c-0.4-4-1.1-7.9-2-11.8l0,0c-0.2-0.7-0.4-1.4-0.5-2.1
			c-0.5-2.1-1.1-4.2-1.9-6.3l0,0c-0.1-0.3-0.2-0.6-0.3-0.9c-0.8-2.4-1.7-4.7-2.8-7c-0.6-1.3-1.2-2.6-1.9-3.9l0,0
			c-0.8-1.6-1.6-3.1-2.5-4.6c-0.5-0.8-1-1.6-1.4-2.4l0,0c-0.8-1.2-1.5-2.5-2.4-3.7l0,0c-0.6-0.9-1.3-1.8-2-2.7l0,0
			c-1-1.3-2-2.6-3-3.9l0,0c-2.5-2.9-5.1-5.6-7.9-8.1l-0.5-0.5c-2.5-2.3-5.1-4.4-7.9-6.4l0,0l-0.3-0.2c-4.1-2.9-8.4-5.5-13-7.7l0,0
			c-0.5-0.2-1-0.5-1.5-0.7l0,0c-1.9-0.9-3.9-1.8-5.9-2.5l0,0l-0.6-0.2c-4.9-1.9-10-3.3-15.2-4.2l0,0h0.1
			c-73.3-13.4-121.9-83.8-108.5-157.1c0,0,0-0.1,0-0.1l0,0l0,0c0.4-2,0.7-3.9,0.9-5.9c0-0.1,0-0.2,0-0.3c0.3-1.8,0.5-3.7,0.6-5.6
			c0-0.6,0.1-1.2,0.1-1.8c0.1-1.5,0.2-2.9,0.3-4.4c0.1-2.1,0.2-4.3,0.2-6.4c0-2.7-0.1-5.4-0.3-8c0-0.8-0.1-1.6-0.2-2.4
			c-0.1-1.9-0.3-3.8-0.5-5.7c-0.1-0.8-0.2-1.6-0.3-2.5c-0.3-2.1-0.6-4.1-1-6.1c-0.1-0.5-0.2-1.1-0.3-1.6c-0.5-2.7-1.1-5.3-1.8-7.9
			c0-0.1,0-0.2-0.1-0.2c-0.6-2.5-1.4-4.9-2.2-7.3l-0.5-1.5c-0.7-2.1-1.5-4.1-2.3-6.2l-0.5-1.3c-2-5-4.3-9.8-6.9-14.5l0,0
			c-9.2-16.7-3.1-37.7,13.5-47c87.1-47.9,119-157.3,71.1-244.4S180.5-25.6,93.3,22.3C35.8,53.9,0,114.3,0,180v270
			c0,74.6,60.4,135,135,135C60.4,585,0,645.4,0,720s60.4,135,135,135c42.5,0,82.5-20,108-54c14.9-19.9,43.1-23.9,63-9l0,0v-0.1l0,0
			l0.4,0.3c1.3,1,2.7,1.9,4.1,2.8c0.6,0.4,1.2,0.8,1.8,1.2c1.3,0.8,2.7,1.6,4.1,2.4c0.7,0.4,1.4,0.8,2.1,1.1
			c1.4,0.7,2.8,1.4,4.2,2.1c0.7,0.3,1.4,0.6,2.1,0.9c1.5,0.6,3,1.3,4.5,1.8c0.7,0.3,1.5,0.6,2.2,0.8c1.3,0.4,2.6,0.8,3.9,1.2
			l1.3,0.4c1,0.3,2,0.5,3,0.8c1.2,0.3,2.5,0.6,3.8,0.8h0.3h-0.1c73.3,13.4,121.9,83.8,108.5,157.1c0,0,0,0.1,0,0.1l0,0l0,0
			c-0.4,2-0.7,3.9-0.9,5.9c0,0.1,0,0.2,0,0.3c-0.2,1.8-0.5,3.7-0.6,5.6c0,0.6-0.1,1.2-0.1,1.8c-0.1,1.5-0.2,2.9-0.3,4.4
			c-0.1,2.1-0.2,4.3-0.2,6.4c0,2.7,0.1,5.4,0.3,8c0,0.8,0.1,1.6,0.2,2.4c0.1,1.9,0.3,3.8,0.5,5.7c0.1,0.8,0.2,1.7,0.3,2.5
			c0.3,2.1,0.6,4.1,1,6.1c0.1,0.5,0.2,1.1,0.3,1.6c0.5,2.7,1.1,5.3,1.8,7.9c0,0.1,0,0.2,0.1,0.2c0.6,2.5,1.4,4.9,2.2,7.3l0.5,1.5
			c0.7,2.1,1.5,4.1,2.3,6.2l0.5,1.3c2,5,4.3,9.8,6.9,14.5l0,0c9.2,16.7,3.1,37.7-13.5,47c-87.1,47.9-119,157.3-71.1,244.4
			c47.9,87.1,157.3,119,244.4,71.1c57.6-31.6,93.3-92.1,93.3-157.7V990C720,915.4,659.6,855,585,855z M135,810
			c-49.7,0-90-40.3-90-90s40.3-90,90-90s90,40.3,90,90l0,0C225,769.7,184.7,810,135,810z M245,298.3
			c-38.5,21.3-52.4,69.7-31.2,108.2l0,0c24,43.5,8.3,98.3-35.2,122.3c-43.5,24-98.3,8.3-122.3-35.2c-20.2-36.6-12.6-82.3,18.4-110.3
			h-0.1c32.6-29.6,35.1-80,5.5-112.6c0,0,0,0,0,0l0,0C29.9,215.5,34.1,130.1,89.3,80S229.9,34.1,280,89.3s45.9,140.6-9.3,190.7
			C262.9,287.1,254.3,293.2,245,298.3z M360,765c-24.9,0-45-20.1-45-45s20.1-45,45-45s45,20.1,45,45S384.9,765,360,765L360,765z
			 M638.8,1062h0.2c-39.8,29.8-47.8,86.2-18,126l0,0h-0.1c15,19.8,11,48.1-8.9,63c-19.8,15-48.1,11-63-8.9
			c-12.1-16-12.1-38.1,0-54.2H549c29.8-39.8,21.8-96.2-18-126l0,0h0.2c-39.8-29.7-48-86.1-18.3-126c29.7-39.8,86.1-48,126-18.3
			c39.8,29.7,48,86.1,18.3,126C651.9,1050.7,645.8,1056.8,638.8,1062z"/>
	</g>
</g>
</svg>
